<svg width="20" height="20" viewBox="0 0 20 20" fill="none" xmlns="http://www.w3.org/2000/svg">
<path fill-rule="evenodd" clip-rule="evenodd" d="M11.5172 10.8995C12.3947 10.0487 13 8.76284 13 7.25C13 4.75 11.25 3 9 3C6.75 3 5 4.75 5 7.25C5 8.71197 5.56525 9.96197 6.39525 10.8122C4.64176 11.2537 2.98139 12.2134 2.19664 13.999C1.84059 14.8091 2.06133 15.6043 2.55085 16.1536C3.02236 16.6826 3.74542 17 4.49999 17H11.25C11.6642 17 12 16.6642 12 16.25C12 15.8358 11.6642 15.5 11.25 15.5H4.49999C4.15 15.5 3.84247 15.3483 3.67065 15.1556C3.51685 14.983 3.48151 14.8036 3.56987 14.6025C4.36846 12.7854 6.66918 12 8.99999 12C9.61229 12 10.2432 12.0559 10.8525 12.1782C11.2586 12.2596 11.6539 11.9964 11.7353 11.5903C11.7879 11.3284 11.6971 11.0711 11.5172 10.8995ZM11.5 7.25C11.5 9.34254 10.0104 10.5 9 10.5C7.98964 10.5 6.5 9.34254 6.5 7.25C6.5 5.51762 7.63795 4.5 9 4.5C10.362 4.5 11.5 5.51762 11.5 7.25Z" fill="black"/>
<path d="M15 11C15.4142 11 15.75 11.3358 15.75 11.75V13.25H17.25C17.6642 13.25 18 13.5858 18 14C18 14.4142 17.6642 14.75 17.25 14.75H15.75V16.25C15.75 16.6642 15.4142 17 15 17C14.5858 17 14.25 16.6642 14.25 16.25V14.75H12.75C12.3358 14.75 12 14.4142 12 14C12 13.5858 12.3358 13.25 12.75 13.25H14.25V11.75C14.25 11.3358 14.5858 11 15 11Z" fill="black"/>
</svg>
