<svg fill="none" height="20" viewBox="0 0 20 20" width="20" xmlns="http://www.w3.org/2000/svg"><path d="m7.78939 3.77125-4.01814 4.01814 2.37582.47516c.1452.02904.27855.10041.38325.20511l1.49999 1.5c.18629.18624.26117.45664.19728.71224-.2385.954-.34166 1.7879-.23418 2.594.07699.5774.26577 1.1673.62461 1.7954l6.45328-6.45327c-.6281-.35885-1.218-.54762-1.7954-.62462-.8061-.10748-1.64-.00431-2.594.23418-.2556.0639-.526-.01099-.71224-.19727l-1.5-1.5c-.1047-.1047-.17607-.23805-.20511-.38325zm-.73035-1.39097c.70595-.70596 1.91381-.34025 2.10961.63874l.52224 2.61121 1.04431 1.04432c.9063-.19761 1.8121-.29155 2.7389-.16798 1.0796.14395 2.1358.57585 3.2259 1.39342.1739.13045.2827.32996.2981.54683s-.064.42976-.2178.5835l-3.3447 3.34468 3.3447 3.3447c.2929.2929.2929.7677 0 1.0606s-.7677.2929-1.0606 0l-3.3447-3.3447-3.34469 3.3447c-.15374.1538-.36662.2332-.5835.2178-.21687-.0154-.41638-.1242-.54683-.2981-.81756-1.0901-1.24946-2.1463-1.39341-3.2259-.12357-.9268-.02963-1.8326.16797-2.7389l-1.04431-1.04431-2.61121-.52224c-.97899-.1958-1.3447-1.40366-.63874-2.10961z" fill="#000"/></svg>